<svg xmlns="http://www.w3.org/2000/svg" xmlns:cc="http://web.resource.org/cc/" xmlns:svg="http://www.w3.org/2000/svg" id="svg2" width="106.771" height="106.771" viewBox="0 0 640 640"><metadata id="metadata21"/><path style="fill:#3895bd" id="path4" d="M640,580 l0,6 -1,6 -2,6 -2,5 -2,6 -3,5 -4,4 -3,5 -5,3 -4,4 -5,3 -6,2 -5,2 -6,2 -6,1 -6,0 -520,0 -6,0 -6,-1 -6,-2 -5,-2 -5,-2 -5,-3 -5,-4 -4,-3 -4,-5 -4,-4 -3,-5 -2,-6 -2,-5 -2,-6 -1,-6 0,-6 0,-520 0,-6 1,-6 2,-6 2,-5 2,-5 3,-5 4,-5 4,-4 4,-4 5,-4 5,-3 5,-2 5,-2 6,-2 6,-1 6,0 520,0 6,0 6,1 6,2 5,2 6,2 5,3 4,4 5,4 3,4 4,5 3,5 2,5 2,5 2,6 1,6 0,6 0,520z"/><path style="fill:#fff" id="path6" d="M598,320 l0,17 1,10 0,9 -1,8 -1,6 -1,3 -1,2 -2,1 -2,0 -4,0 -8,-1 -27,-1 -16,-1 -18,0 -17,1 -8,0 -7,1 2,-8 2,-7 2,-8 0,-8 0,-8 -1,-8 -2,-8 -3,-7 -3,-7 -3,-7 -4,-6 -6,-5 -4,-4 -4,-4 -4,-3 -4,-2 -10,-4 -9,-3 -6,-4 -6,-4 -5,-4 -5,-4 0,-3 0,-4 1,-3 1,-3 1,-3 2,-2 3,-2 2,-2 3,-1 3,-1 6,0 4,1 3,2 4,2 4,2 6,5 3,1 3,1 4,1 5,-1 3,-1 4,-3 3,-3 3,-3 6,-5 3,-2 2,-1 2,0 2,0 2,0 4,2 3,2 3,2 6,6 5,5 4,4 5,3 4,2 4,1 4,0 4,0 3,-1 4,-1 3,-2 3,-2 3,-3 5,-5 5,-5 2,-1 3,1 1,1 1,1 1,2 1,2 2,4 2,6 3,13 3,15 3,16 2,15 1,13z"/><path style="fill:#fff" id="path8" d="M483,381 l31,-3 28,-1 12,1 9,0 7,1 2,0 1,1 2,1 1,1 1,2 0,1 -1,3 -1,3 -6,6 -2,4 -2,3 3,11 1,6 0,6 0,8 -1,5 0,4 -2,8 -2,4 -1,4 -4,7 -2,4 -3,3 -2,3 -3,4 -6,6 -6,5 -7,5 -8,4 -8,4 -9,3 -9,2 -9,2 -10,0 -22,1 -8,-1 -8,-1 -8,-2 -8,-2 -7,-3 -6,-3 -7,-4 -6,-4 -5,-4 -5,-5 -4,-5 -3,-5 -3,-5 -2,-6 -2,-6 0,-6 0,-4 0,-3 7,-4 6,-2 14,-5 15,-4 7,-3 6,-2 11,-5 6,-2 4,-3 3,-2 4,-2 6,-4 5,-5 5,-5 8,-10 3,-5z"/><path style="fill:#fff" id="path10" d="M297,288 l-4,1 -4,1 -4,0 -4,0 -5,-5 -5,-6 -3,-6 -2,-6 -2,-6 -1,-6 -1,-7 1,-7 1,-6 1,-4 3,-4 2,-4 4,-3 3,-3 3,-2 6,-5 13,-9 5,-3 4,-4 8,-10 4,-6 3,-6 3,-6 3,-6 3,-6 2,-5 1,-5 0,-5 0,-4 -1,-5 -1,-3 -2,-4 -2,-2 -1,-2 -4,-4 -2,-2 -2,-2 -5,-3 -11,-6 -12,-6 -20,-8 -6,-3 -2,-1 0,-1 1,-1 1,-1 4,-1 6,-1 8,0 16,0 16,1 21,1 21,3 21,5 10,2 11,3 10,4 10,3 20,8 9,5 10,4 9,5 9,5 9,5 8,5 8,6 8,5 14,12 13,12 6,6 5,6 5,6 5,7 2,3 1,3 4,6 2,6 3,6 -1,3 0,2 -2,3 -2,3 -2,2 -3,3 -4,2 -4,2 -4,1 -4,0 -5,0 -4,0 -5,-2 -5,-3 -5,-3 -5,-5 -6,-6 -5,-4 -3,-1 -2,-1 -2,-1 -2,0 -4,1 -3,2 -3,3 -3,3 -7,6 -3,2 -4,2 -2,0 -2,0 -4,0 -3,-1 -3,-2 -3,-2 -3,-2 -4,-3 -4,-2 -3,-1 -4,-1 -4,0 -3,1 -3,1 -3,2 -3,2 -2,2 -2,3 -2,3 -2,3 0,4 -1,3 0,4 -8,-6 -5,-4 -5,-3 -3,-1 -1,0 -2,0 -1,1 -2,3 -4,8 -2,5 -2,2 -2,2 -3,1 -3,2 -4,1 -5,1 -12,1 -10,1 -8,2 -8,3 -3,1 -3,2 -3,2 -3,2 -2,3 -3,3 -4,6z"/><path style="fill:#fff" id="path12" d="M52,229 l3,-7 3,-7 3,-7 3,-6 8,-13 9,-13 9,-12 5,-5 6,-6 11,-10 12,-10 13,-9 14,-8 14,-7 15,-7 16,-6 17,-4 17,-4 18,-3 4,0 4,1 7,1 6,3 6,2 14,7 13,6 6,4 6,4 4,5 2,2 2,3 2,4 1,4 0,3 1,4 -1,7 -2,7 -2,8 -5,9 -5,8 -2,3 -2,3 -3,4 -2,2 -6,6 -6,6 -7,5 -9,6 -2,2 -3,1 -4,4 -3,4 -3,3 -2,4 -2,5 -2,7 0,3 0,3 0,7 2,7 1,4 1,3 4,7 5,7 5,7 -4,0 -4,-1 -5,-1 -4,0 -4,1 -3,1 -2,1 -2,1 -1,2 -1,1 -2,4 -1,5 -3,5 -4,5 -3,3 -5,2 -5,2 -4,3 -8,6 -7,6 -6,7 -11,15 -11,15 1,-3 -8,2 -9,2 -8,1 -9,0 -9,-1 -9,-1 -9,-2 -8,-4 -8,-3 -8,-5 -7,-5 -7,-6 -6,-6 -5,-7 -5,-7 -5,-8 -4,-8 -1,-4 -2,-5 -1,-4 -1,-4 -2,-9 1,-15 3,-14 3,-14 4,-14z"/><path style="fill:#fff" id="path14" d="M248,297 l4,-1 5,0 6,0 9,1 4,1 5,-1 3,-1 4,-1 7,-3 6,-3 12,-9 7,-3 4,-2 4,-2 9,-2 5,-1 6,-1 8,-1 7,-2 6,-3 5,-3 4,-4 4,-4 7,-9 4,3 4,2 9,7 5,4 4,4 4,3 6,2 7,3 8,4 8,4 6,4 6,5 5,7 4,6 4,6 3,6 2,8 1,7 1,8 0,8 -1,8 -1,8 -2,8 -2,8 -2,4 -1,4 -5,7 -2,4 -3,3 -6,6 -6,5 -5,3 -5,2 -11,6 -14,5 -14,5 -25,9 -14,4 -16,4 -15,4 -16,2 -15,2 -14,0 -14,0 -7,0 -7,-1 -13,-2 -12,-3 -6,-2 -6,-2 -5,-2 -5,-2 -10,-5 -8,-6 -7,-7 -6,-8 -2,-4 -2,-4 -2,-6 -1,-7 -1,-6 0,-7 11,-15 6,-8 5,-7 6,-7 7,-7 4,-3 4,-2 5,-3 4,-3 5,-2 3,-3 3,-2 2,-3 2,-5 4,-8 3,-3 1,-2 2,-1z"/><path style="fill:#fff" id="path16" d="M362,455 l19,43 4,1 11,4 6,3 6,4 4,4 2,2 2,2 8,19 9,16 9,18 -53,19 -19,-50 -30,-22 -27,-53 49,-10z"/></svg>