<svg width="106.771" height="106.771" viewBox="0 0 640 640"><path style="fill:#3941bf" d="M640,580 l0,6 -1,6 -2,6 -2,5 -2,6 -3,5 -4,4 -3,5 -5,3 -4,4 -5,3 -6,2 -5,2 -6,2 -6,1 -6,0 -520,0 -6,0 -6,-1 -6,-2 -5,-2 -5,-2 -5,-3 -5,-4 -4,-3 -4,-5 -4,-4 -3,-5 -2,-6 -2,-5 -2,-6 -1,-6 0,-6 0,-520 0,-6 1,-6 2,-6 2,-5 2,-5 3,-5 4,-5 4,-4 4,-4 5,-4 5,-3 5,-2 5,-2 6,-2 6,-1 6,0 520,0 6,0 6,1 6,2 5,2 6,2 5,3 4,4 5,4 3,4 4,5 3,5 2,5 2,5 2,6 1,6 0,6 0,520z"/><path style="fill:#fff" d="M160,208 l0,-3 0,-6 2,-7 1,-6 3,-5 2,-6 4,-5 3,-5 5,-4 4,-4 5,-4 5,-3 6,-2 6,-2 6,-2 6,-1 6,0 7,0 6,1 7,2 6,2 5,3 6,3 5,4 4,4 4,4 4,5 3,6 3,5 2,6 1,3 1,4 1,6 0,7 0,225 0,6 -1,7 -2,6 -2,6 -3,6 -3,5 -4,5 -4,4 -4,5 -5,3 -6,4 -5,2 -6,2 -3,1 -4,1 -6,1 -7,0 -6,0 -7,-1 -6,-2 -6,-2 -5,-2 -6,-4 -5,-3 -4,-5 -4,-4 -4,-5 -3,-5 -3,-6 -2,-6 -1,-3 -1,-3 -1,-7 0,-6 0,-225z"/><path style="fill:#fff" d="M351,208 l0,-3 1,-6 1,-7 2,-6 2,-5 3,-6 3,-5 4,-5 4,-4 4,-4 5,-4 6,-3 5,-2 6,-2 6,-2 6,-1 7,0 6,0 7,1 6,2 6,2 6,3 5,3 5,4 5,4 4,4 3,5 4,6 2,5 3,6 0,3 1,4 1,6 0,7 0,225 0,6 -1,7 -1,6 -3,6 -2,6 -4,5 -3,5 -4,4 -5,5 -5,3 -5,4 -6,2 -6,2 -3,1 -3,1 -7,1 -6,0 -7,0 -6,-1 -6,-2 -6,-2 -6,-2 -5,-4 -5,-3 -5,-5 -4,-4 -4,-5 -3,-5 -3,-6 -2,-6 -1,-3 -1,-3 -1,-7 0,-6 0,-225z"/></svg>