<svg xmlns="http://www.w3.org/2000/svg" xmlns:xlink="http://www.w3.org/1999/xlink" id="Layer_2" width="428.032" height="428.032" x="0" y="0" enable-background="new 0 0 428.032 428.032" version="1.1" viewBox="0 0 428.032 428.032" xml:space="preserve"><rect id="full" width="428.003" height="428.032" x="0" y="0" fill="#FFFCE7" stroke="#000" stroke-miterlimit="10" stroke-width=".1"/><g><g id="horitzontal"><line x1="0" x2="428.874" y1="56.121" y2="56.121" stroke="#432918" stroke-miterlimit="10" stroke-width=".1"/><line x1="0" x2="428.658" y1="81.317" y2="81.317" stroke="#432918" stroke-miterlimit="10" stroke-width=".1"/><line x1="0" x2="428.766" y1="68.719" y2="68.719" stroke="#432918" stroke-miterlimit="10" stroke-width=".1"/><line x1="0" x2="428.55" y1="43.522" y2="43.522" stroke="#432918" stroke-miterlimit="10" stroke-width=".1"/><line x1="0" x2="428.874" y1="131.711" y2="131.711" stroke="#432918" stroke-miterlimit="10" stroke-width=".1"/><line x1="0" x2="428.658" y1="93.916" y2="93.916" stroke="#432918" stroke-miterlimit="10" stroke-width=".1"/><line x1="0" x2="428.658" y1="156.908" y2="156.908" stroke="#432918" stroke-miterlimit="10" stroke-width=".1"/><line x1="0" x2="428.766" y1="106.514" y2="106.514" stroke="#432918" stroke-miterlimit="10" stroke-width=".1"/><line x1="0" x2="428.766" y1="144.31" y2="144.31" stroke="#432918" stroke-miterlimit="10" stroke-width=".1"/><line x1="0" x2="428.55" y1="119.113" y2="119.113" stroke="#432918" stroke-miterlimit="10" stroke-width=".1"/><line x1="0" x2="428.874" y1="207.301" y2="207.301" stroke="#432918" stroke-miterlimit="10" stroke-width=".1"/><line x1="0" x2="428.658" y1="169.507" y2="169.507" stroke="#432918" stroke-miterlimit="10" stroke-width=".1"/><line x1="0" x2="428.658" y1="232.499" y2="232.499" stroke="#432918" stroke-miterlimit="10" stroke-width=".1"/><line x1="0" x2="428.766" y1="182.105" y2="182.105" stroke="#432918" stroke-miterlimit="10" stroke-width=".1"/><line x1="0" x2="428.766" y1="219.9" y2="219.9" stroke="#432918" stroke-miterlimit="10" stroke-width=".1"/><line x1="0" x2="428.55" y1="194.703" y2="194.703" stroke="#432918" stroke-miterlimit="10" stroke-width=".1"/><line x1="0" x2="428.874" y1="282.892" y2="282.892" stroke="#432918" stroke-miterlimit="10" stroke-width=".1"/><line x1="0" x2="428.658" y1="245.097" y2="245.097" stroke="#432918" stroke-miterlimit="10" stroke-width=".1"/><line x1="0" x2="428.658" y1="308.089" y2="308.089" stroke="#432918" stroke-miterlimit="10" stroke-width=".1"/><line x1="0" x2="428.766" y1="257.695" y2="257.695" stroke="#432918" stroke-miterlimit="10" stroke-width=".1"/><line x1="0" x2="428.766" y1="295.491" y2="295.491" stroke="#432918" stroke-miterlimit="10" stroke-width=".1"/><line x1="0" x2="428.55" y1="270.293" y2="270.293" stroke="#432918" stroke-miterlimit="10" stroke-width=".1"/><line x1="0" x2="428.874" y1="358.483" y2="358.483" stroke="#432918" stroke-miterlimit="10" stroke-width=".1"/><line x1="0" x2="428.658" y1="320.688" y2="320.688" stroke="#432918" stroke-miterlimit="10" stroke-width=".1"/><line x1="0" x2="428.658" y1="383.68" y2="383.68" stroke="#432918" stroke-miterlimit="10" stroke-width=".1"/><line x1="0" x2="428.766" y1="333.286" y2="333.286" stroke="#432918" stroke-miterlimit="10" stroke-width=".1"/><line x1="0" x2="428.766" y1="371.082" y2="371.082" stroke="#432918" stroke-miterlimit="10" stroke-width=".1"/><line x1="0" x2="428.55" y1="345.884" y2="345.884" stroke="#432918" stroke-miterlimit="10" stroke-width=".1"/></g></g></svg>