<svg xmlns="http://www.w3.org/2000/svg" xmlns:svg="http://www.w3.org/2000/svg" id="svg2" width="500" height="500" version="1.1" viewBox="0 0 2830.82 2830.783"><metadata id="metadata198"/><defs id="defs196"><filter id="filter3286" width="1" height="1" x="0" y="0" color-interpolation-filters="sRGB"><feColorMatrix id="feColorMatrix3288" type="saturate" values="0"/></filter><filter id="filter3290" width="1" height="1" x="0" y="0" color-interpolation-filters="sRGB"><feColorMatrix id="feColorMatrix3292" type="saturate" values="0"/></filter><filter id="filter3294" width="1" height="1" x="0" y="0" color-interpolation-filters="sRGB"><feColorMatrix id="feColorMatrix3296" type="saturate" values="0"/></filter><filter id="filter3298" width="1" height="1" x="0" y="0" color-interpolation-filters="sRGB"><feColorMatrix id="feColorMatrix3300" type="saturate" values="0"/></filter><filter id="filter3302" width="1" height="1" x="0" y="0" color-interpolation-filters="sRGB"><feColorMatrix id="feColorMatrix3304" type="saturate" values="0"/></filter><filter id="filter3306" width="1" height="1" x="0" y="0" color-interpolation-filters="sRGB"><feColorMatrix id="feColorMatrix3308" type="saturate" values="0"/></filter><filter id="filter3310" width="1" height="1" x="0" y="0" color-interpolation-filters="sRGB"><feColorMatrix id="feColorMatrix3312" type="saturate" values="0"/></filter><filter id="filter3314" width="1" height="1" x="0" y="0" color-interpolation-filters="sRGB"><feColorMatrix id="feColorMatrix3316" type="saturate" values="0"/></filter><filter id="filter3318" width="1" height="1" x="0" y="0" color-interpolation-filters="sRGB"><feColorMatrix id="feColorMatrix3320" type="saturate" values="0"/></filter><filter id="filter3322" width="1" height="1" x="0" y="0" color-interpolation-filters="sRGB"><feColorMatrix id="feColorMatrix3324" type="saturate" values="0"/></filter><filter id="filter3326" width="1" height="1" x="0" y="0" color-interpolation-filters="sRGB"><feColorMatrix id="feColorMatrix3328" type="saturate" values="0"/></filter><filter id="filter3330" width="1" height="1" x="0" y="0" color-interpolation-filters="sRGB"><feColorMatrix id="feColorMatrix3332" type="saturate" values="0"/></filter><filter id="filter3334" width="1" height="1" x="0" y="0" color-interpolation-filters="sRGB"><feColorMatrix id="feColorMatrix3336" type="saturate" values="0"/></filter><filter id="filter3338" width="1" height="1" x="0" y="0" color-interpolation-filters="sRGB"><feColorMatrix id="feColorMatrix3340" type="saturate" values="0"/></filter><filter id="filter3294-8" width="1" height="1" x="0" y="0" color-interpolation-filters="sRGB"><feColorMatrix id="feColorMatrix3296-4" type="saturate" values="0"/></filter></defs><path style="fill:#000;filter:url(#filter3338)" id="path164" d="m 542.88405,107.47337 -5,-7 -5,-5.000001 -6,-5 -5,-4 -6,-4 -6,-4 -6,-3 -7,-3 -6,-3 -6,-2 -7,-3 -7,-2 -6,-2 -7,-2 -6,-2 -7,-3 -5,-1 -7,-2 -8,-2 -9,-2 -10,-2 -11,-1 -11,-2 -11,-1 -5,-1 -6,-1 -6,0 -7,-1 -7,0 -7,0 -6,0 -7,0 -7,0 -6,0 -5,1 -5,0 -3,0 -4,0 -2,0 0,0 -10,2 -10,1 -10,2 -10,2 -9,2 -10,2 -10,3 -9,3 -9,3 -9,4 -10,4 -8,4 -9,5 -9,5 -8,6 -7,7 -4,5 -3,6.000001 -4,6 -2,5 -2,7 -1,6 0,7 1,6 -5,7 -5,8 -4,8 -4,7 -5,8 -3,9 -2.000003,8 -3,9 19.000003,10 1,-1 0,-2 0,-2 1,-2 0,-4 4,-9 3,-8 3,-9 4,-9 4,31 4,43 3,39 1,17 -7,-8 -7,-8 -5,-9 -4,-9 -3,-10 -3,-10 -1,-10 1,-11 -20.000003,-9 0,2 -1,3 0,3 -1,3 1,15 3,15 4.000003,15 6,13 8,13 9,11 11,11 13,9 1,17 3,21 2,26 3,27 2,28 4,23 2,19 3,12 1,4 1,3 1,3 2,3 2,3 3,2 3,2 3,2 6,3 6,3 6,3 6,2 7,3 6,2 6,2 6,3 6,2 7,2 6,2 7,3 6,1 7,2 7,1 6,2 10,1 10,1 10,1 10,0 10,-1 9,-1 11,-2 10,-2 4,-2 5,-1 4,0 4,-1 4,-1 5,-1 4,-2 4,-2 10,-3 10,-4 10,-4 9,-5 9,-5 10,-5 9,-6 9,-5 2,-2 1,-3 0,-3 0,-3 2,-11 6,-28 8,-42 10,-50 10,-54 11,-54 9,-48 8,-39 0,-8 2,-9 2,-8 2,-8 1,-9 0,-8 -2,-8 -4,-7 z" transform="matrix(5.2456921,0,0,4.0843497,-277.42525,193.79147)"/><path style="fill:#0fd368;filter:url(#filter3334)" id="path168" d="m 500.45399,171.71694 -7,2 -6,1 -6,1 -7,2 -6,1 -7,2 -6,1 -7,1 -6,1 -7,1 -6,1 -7,1 -7,1 -6,1 -7,1 -7,1 -1,0 0,0 -1,0 -1,0 -1,18 -1,21 -1,24 -1,26 7,-5 8,-6 7,-6 8,-7 7,-6 7,-7 7,-6 7,-7 8,-7 6,-7 7,-7 7,-7 7,-8 6,-7 6,-7 7,-8 z" transform="matrix(5.2456921,0,0,4.0843497,-324.07204,193.79147)"/><path style="fill:#23e87c;filter:url(#filter3330)" id="path170" d="m 543.45399,117.71694 -2,-8 -4,-7 -6,-7.000001 -6,-5 -7,-6 -8,-4 -8,-4 -7,-3 -7,-4 -7,-2 -8,-3 -7,-3 -7,-2 -7,-2 -8,-3 -8,-2 -7,-2 -8,-2 -8,-1 -7,-2 -9,-2 -7,-1 -8,-1 -8,-1 -4,5 -5,9 -6,10 -6,13 -5,13 -4,15.000001 -2,14 1,15 2,5 3,5 4,5 5,4 5,4 7,3 7,2 7,3 8,2 7,1 9,2 7,1 8,1 7,1 7,0 6,1 7,-2 8,-1 8,-2 7,-1 8,-2 8,-2 7,-2 7,-2 -1,-1 1,-3 0,-4 1,-5 2,-3 2,-3 1,-2 2,-2 2,-1 2,-1 3,-1 3,-1 2,0 4,1 3,1 3,2 2,2 3,-4 3,-6 2,-7 1,-5 z" transform="matrix(5.2456921,0,0,4.0843497,-324.07204,193.79147)"/><path style="fill:#05c95e;filter:url(#filter3326)" id="path172" d="m 343.45399,134.71694 -1,-15 2,-14 4,-15.000001 5,-13 6,-13 6,-10 5,-9 4,-5 -3,0 -3,0 -2,0 -2,-1 -1,0 -3,0 -4,0 -4,0 -6,0 -7,0 -6,0 -7,0 -8,0 -7,1 -7,0 -7,1 -7,0 -6,1 -6,1 -4,1 -5,0 -6,1 -8,2 -7,1 -8,2 -6,1 -4,1 -2,0 -11,3 -11,4 -10,4 -10,4 -10,6 -10,6 -9,7 -9,7 -6,9.000001 -4,10 -1,10 3,10 7,8 9,6 9,5 10,4 10,2 10,3 10,3 9,3 2,0 2,1 3,0 5,1 6,1 6,1 8,2 8,1 8,1 9,2 9,2 8,1 9,2 8,1 8,1 7,1 7,0 7,-1 7,0 8,0 7,0 7,0 7,0 7,-1 7,0 7,-1 6,0 8,-1 6,-1 7,-1 7,-1 7,-2 2,0 3,-1 2,0 3,0 -6,-1 -7,0 -7,-1 -8,-1 -7,-1 -9,-2 -7,-1 -8,-2 -7,-3 -7,-2 -7,-3 -5,-4 -5,-4 -4,-5 -3,-5 -2,-5 z" transform="matrix(5.2456921,0,0,4.0843497,-324.07204,193.79147)"/><path style="fill:#0fd368;filter:url(#filter3322)" id="path174" d="m 411.45399,303.71694 -3,2 -3,3 -3,3 -4,2 -3,2 -3,3 -3,2 -3,2 -4,67 -3,64 -2,53 -2,34 7,-2 7,-2 7,-2 7,-3 7,-2 6,-3 7,-2 7,-3 5,-5 7,-3 6,-3 7,-3 6,-3 5,-5 4,-5 3,-7 7,-26 7,-34 8,-41 8,-45 8,-45 8,-45 7,-40 6,-33 -6,9 -7,10 -8,10 -9,10 -10,11 -9,10 -11,10 -10,10 -10,9 -9,9 -9,8 -7,6 -7,5 -5,4 -3,3 -1,1 z" transform="matrix(5.2456921,0,0,4.0843497,-324.07204,193.79147)"/><path style="fill:#00aa3f;filter:url(#filter3318)" id="path176" d="m 527.45399,143.71694 -2,-2 -2,0 -2,1 -3,1 -3,3 -3,4 -1,4 -1,5 8,-8 2,1 1,0 2,0 1,0 3,3 1,3 2,3 -1,4 -3,6 -5,7 -4,6 -5,5 -5,6 -6,6 -4,6 -5,6 -79,77 -2,2 -3,2 -2,1 -3,2 -3,2 -3,1 -2,2 -2,2 -2,1 -1,1 -2,1 -2,1 0,4 0,3 0,3 0,4 3,-2 3,-2 3,-3 3,-2 4,-2 3,-3 3,-3 3,-2 1,-1 3,-3 5,-4 7,-5 7,-6 9,-8 9,-9 10,-9 10,-10 11,-10 9,-10 10,-11 9,-10 8,-10 7,-10 6,-9 2,-9 1,-8 2,-6 1,-6 -4,1 -3,-2 -2,-3 -2,-2 z" transform="matrix(5.2456921,0,0,4.0843497,-324.07204,193.79147)"/><path style="fill:#3aff93;filter:url(#filter3314)" id="path178" d="m 255.45399,329.71694 2,0 4,0 8,-1 9,0 10,-1 10,-1 9,-2 8,-1 10,-5 9,-4 9,-6 10,-5 9,-5 8,-6 9,-6 9,-7 1,-26 1,-24 1,-21 1,-18 -10,1 -11,0 -10,0 -10,0 -10,0 -10,0 -9,-1 -10,0 -6,0 -7,-1 -6,-1 -6,-1 -6,-1 -7,-1 -6,-1 -7,0 -5,-2 -5,-1 -5,-1 -6,-1 -5,-1 -5,-1 -6,-2 -5,-1 -5,-1 -6,-1 -5,-1 -5,-1 -5,-2 -5,-1 -5,-2 -5,-1 11,153 8,3 8,2 8,2 8,1 8,2 9,1 8,0 9,1 z" transform="matrix(5.2456921,0,0,4.0843497,-324.07204,193.79147)"/><path style="fill:#3aff93;filter:url(#filter3310)" id="path180" d="m 192.45399,351.71694 12,167 7,4 8,3 7,3 7,3 7,3 8,2 8,2 7,2 8,3 6,2 7,2 7,1 7,1 7,1 7,0 7,0 8,0 6,-1 7,-1 8,-1 7,-1 6,-2 7,-2 7,-2 2,-34 2,-53 3,-64 4,-67 -10,6 -10,6 -9,5 -9,4 -8,3 -8,3 -7,3 -7,2 -6,1 -6,2 -4,0 -4,1 -3,0 -3,1 -1,0 -1,0 -6,1 -7,0 -7,0 -7,1 -7,0 -6,-1 -6,0 -7,-1 -6,0 -6,-1 -6,-1 -6,-1 -6,-1 -5,-2 -5,-1 -5,-1 z" transform="matrix(5.2456921,0,0,4.0843497,-324.07204,193.79147)"/><path style="fill:#0ace63;filter:url(#filter3306)" id="path182" d="m 290.45399,359.71694 1,0 1,0 3,-1 3,0 4,-1 4,0 6,-2 6,-1 7,-2 7,-3 8,-3 8,-3 9,-4 9,-5 10,-6 10,-6 0,-4 0,-3 0,-3 0,-4 -6,5 -6,3 -7,4 -6,4 -7,4 -7,4 -8,4 -8,4 -9,3 -10,2 -10,2 -12,2 -12,1 -14,1 -15,-1 -17,-1 -5,-1 -5,-1 -5,-2 -6,-1 -5,-1 -5,-1 -5,-1 -5,-2 1,12 5,1 5,1 5,2 6,1 6,1 6,1 6,1 6,0 7,1 6,0 6,1 7,0 7,-1 7,0 7,0 6,-1 z" transform="matrix(5.2456921,0,0,4.0843497,-324.07204,193.79147)"/><path style="fill:#7feaaf;filter:url(#filter3302)" id="path184" d="m 153.45399,301.71694 4,2 4,3 5,2 5,2 4,2 5,2 4,2 5,1 -11,-153 -5,-2 -5,-2 -5,-3 -6,-2 -5,-3 -4,-4 -5,-3 -4,-4 2,24 5,52 5,54 2,30 z" transform="matrix(5.2456921,0,0,4.0843497,-324.07204,193.79147)"/><path style="fill:#7feaaf;filter:url(#filter3298)" id="path186" d="m 158.45399,340.71694 3,27 3,27 2,28 2,28 1,8 1,7 1,9 2,7 2,8 2,7 3,7 4,7 2,1 3,1 3,1 2,1 3,1 2,1 3,1 2,1 -12,-167 -7,-2 -5,-2 -5,-1 -4,-2 -4,-1 -3,-1 -4,-1 -2,-1 z" transform="matrix(5.2456921,0,0,4.0843497,-324.07204,193.79147)"/><path style="fill:#54cc89;filter:url(#filter3294)" id="path188" d="m 158.45399,340.71694 2,1 4,1 3,1 4,1 4,2 5,1 5,2 7,2 -1,-12 -5,-1 -4,-1 -4,-1 -4,-2 -4,-2 -4,-1 -5,-2 -4,-1 0,3 1,3 0,3 0,3 z" transform="matrix(5.2456921,0,0,4.0843497,-324.07204,193.79147)"/><path style="fill:#000;fill-opacity:1" id="path188-4" d="m 239.93398,1071.4278 5.25061,4.4704 10.5012,4.4703 7.87589,4.4701 10.50122,4.4704 10.5012,8.9404 13.12651,4.4704 13.1265,8.9404 18.37713,8.9406 -2.62526,-53.6432 -13.12652,-4.4704 -10.50123,-4.4703 -10.50121,-4.4701 -10.50121,-8.9407 -10.50123,-8.9405 -10.50121,-4.4704 -13.12651,-8.9405 -10.5012,-4.4701 0,13.4106 2.62532,13.4109 0,13.4108 0,13.4109 z"/><path style="fill:#000;fill-opacity:1" id="path188-4-5" d="m 231.55925,1085.9006 5.25061,4.4704 10.5012,4.4704 7.8759,4.4701 10.5012,4.4703 10.50122,8.9406 13.1265,4.4702 13.12652,8.9406 18.37713,8.9404 -2.62529,-53.643 -13.1265,-4.4704 -10.50124,-4.4704 -10.50121,-4.4702 -10.5012,-8.9407 -10.50123,-8.9404 -10.5012,-4.4704 -13.12651,-8.9405 -10.5012,-4.4701 0,13.4106 2.6253,13.4108 0,13.4109 0,13.4108 z"/><path style="fill:#000;fill-opacity:1" id="path188-4-5-6" d="m 224.06282,1104.1782 5.25061,4.4704 10.50121,4.4702 7.8759,4.4704 10.5012,4.47 10.5012,8.9408 13.12652,4.4702 13.12652,8.9406 18.37713,8.9406 -2.62528,-53.6435 -13.12653,-4.4701 -10.50122,-4.4704 -10.50121,-4.4703 -10.5012,-8.9406 -10.50123,-8.9404 -10.50122,-4.4704 -13.1265,-8.9405 -10.50121,-4.4703 0,13.4108 2.62531,13.4108 0,13.4109 0,13.4108 z"/></svg>