<svg xmlns="http://www.w3.org/2000/svg" xmlns:svg="http://www.w3.org/2000/svg" style="fill-rule:evenodd" id="svg2" width="500" height="400" space="preserve" version="1.1" viewBox="0 0 99.776 159.657"><metadata id="metadata3"/><defs id="defs4"><style id="style6" type="text/css"/></defs><path style="fill:#1b1c1f" id="path16" d="m 75.946002,29.982266 c -6.37979,0 -11.58434,5.138759 -11.58433,11.53871 0,6.38029 5.20456,11.584309 11.58433,11.58432 6.38959,0 11.53872,-5.204031 11.5387,-11.58432 0,-6.39995 -5.14911,-11.53871 -11.5387,-11.53871 z m -5.70096,25.540232 c -2.0659,0 -3.73979,1.66666 -3.7398,3.73982 0,17.82271 1e-5,35.6796 0,53.497672 0,2.07935 1.6739,3.73982 3.7398,3.73981 l 4.37834,0 0,-26.954062 2.59963,0 0,26.954062 4.37832,0 c 2.07057,0 3.73984,-1.66046 3.73982,-3.73981 0,-17.818072 2e-5,-35.674982 0,-53.497672 0,-2.07315 -1.66923,-3.73982 -3.73982,-3.73982 l -11.35629,0 z m -9.25833,1.7787 c -1.01769,0 -1.86992,0.81073 -1.86991,1.8243 l 0,25.49461 c 0,1.02856 0.8522,1.86991 1.86991,1.86991 l 1.45945,0 c 1.01563,0 1.86991,-0.84135 1.86991,-1.86991 l 0,-25.49461 c 0,-1.01202 -0.85428,-1.82429 -1.86991,-1.8243 l -1.45945,0 z m 28.41352,0 c -1.01511,0 -1.82432,0.81073 -1.82431,1.8243 l 0,25.49461 c 0,1.02856 0.81178,1.86991 1.82431,1.86991 l 1.50505,0 c 1.01666,0 1.82431,-0.84135 1.82429,-1.86991 l 0,-25.49461 c 0,-1.01202 -0.80762,-1.82429 -1.82429,-1.8243 l -1.50505,0 z"/><path style="fill:#1b1c1f" id="path32" d="m 121.27993,29.982266 c -6.3798,0 -11.53872,5.138759 -11.53873,11.53871 0,6.38029 5.15892,11.584309 11.53873,11.58432 6.38959,0 11.58431,-5.204031 11.58432,-11.58432 0,-6.39995 -5.19475,-11.53871 -11.58432,-11.53871 z m -5.929,25.540232 c -2.17762,0 -3.96787,1.74465 -3.96786,3.92225 0,8.64943 1.12731,13.59082 0,22.16526 -1.19508,9.09624 -4.58141,18.574642 -6.88674,27.455782 5.1e-4,1.06476 0.85024,1.91549 1.91551,1.91551 1.65843,0 3.31282,-2e-5 4.97123,0 0,0.52591 -1e-5,1.07034 0,1.59626 0,2.17813 1.79022,3.92225 3.96786,3.92224 1.52292,0 3.03834,1e-5 4.56076,0 0,-1.84611 0,-3.67238 0,-5.5185 0.9148,0 1.82112,-2e-5 2.73646,0 0,1.84614 -2e-5,3.6724 0,5.5185 1.5219,0 3.08342,1e-5 4.60637,0 2.17812,0 3.92224,-1.74413 3.92225,-3.92224 0,-0.52591 -1e-5,-1.07035 0,-1.59626 1.65842,0 3.35842,-2e-5 5.01682,0 1.06528,0 1.91498,-0.85077 1.91553,-1.91551 -2.30536,-8.88113 -5.73729,-18.359542 -6.93235,-27.455782 -1.12734,-8.57444 -1e-5,-13.51583 0,-22.16526 0,-2.17762 -1.74414,-3.92225 -3.92225,-3.92225 -3.96015,0 -7.94397,0 -11.90359,0 z m -9.0303,1.7787 c -1.01769,0 -1.82429,0.81073 -1.8243,1.8243 l 0,25.49461 c 0,1.02856 0.80659,1.86991 1.8243,1.86991 l 1.50505,0 c 1.01563,0 1.82431,-0.84135 1.82431,-1.86991 l 0,-25.49461 c 0,-1.01202 -0.80868,-1.82429 -1.82431,-1.8243 l -1.50505,0 z m 28.45913,0 c -1.01511,0 -1.86991,0.81073 -1.86991,1.8243 l 0,25.49461 c 0,1.02856 0.85741,1.86991 1.86991,1.86991 l 1.45945,0 c 1.01666,0 1.8699,-0.84135 1.86991,-1.86991 l 0,-25.49461 c 0,-1.01202 -0.85327,-1.82429 -1.86991,-1.8243 l -1.45945,0 z"/><path style="fill:#1b1c1f;fill-rule:evenodd" id="path16-6" d="m -19.879678,31.103945 c -6.37979,0 -11.58434,5.13876 -11.58433,11.538711 0,6.38029 5.20456,11.584309 11.58433,11.584319 6.389591,0 11.5387209,-5.20403 11.5387009,-11.584319 0,-6.39995 -5.1491099,-11.538711 -11.5387009,-11.538711 z m -5.70096,25.540233 c -2.0659,0 -3.73979,1.66666 -3.7398,3.73982 0,17.82271 10e-6,35.679608 0,53.497672 0,2.07935 1.6739,3.73982 3.7398,3.73981 l 4.37834,0 0,-26.954062 2.59963,0 0,26.954062 4.378321,0 c 2.07057,0 3.73984,-1.66046 3.73982,-3.73981 0,-17.818064 2e-5,-35.674982 0,-53.497672 0,-2.07315 -1.66923,-3.73982 -3.73982,-3.73982 l -11.356291,0 z m -9.25833,1.7787 c -1.01769,0 -1.86992,0.81073 -1.86991,1.8243 l 0,25.49461 c 0,1.02856 0.8522,1.86991 1.86991,1.86991 l 1.45945,0 c 1.01563,0 1.86991,-0.84135 1.86991,-1.86991 l 0,-25.49461 c 0,-1.01202 -0.85428,-1.82429 -1.86991,-1.8243 l -1.45945,0 z m 28.4135209,0 c -1.01511,0 -1.82432,0.81073 -1.82431,1.8243 l 0,25.49461 c 0,1.02856 0.81178,1.86991 1.82431,1.86991 l 1.50505,0 c 1.01666,0 1.82431,-0.84135 1.82429,-1.86991 l 0,-25.49461 c 0,-1.01202 -0.80762,-1.82429 -1.82429,-1.8243 l -1.50505,0 z"/><path style="fill:#1b1c1f;fill-rule:evenodd" id="path32-9" d="m 25.454243,31.103945 c -6.37979,0 -11.53871,5.13876 -11.53872,11.538711 0,6.38029 5.15892,11.584309 11.53872,11.584319 6.389589,0 11.584309,-5.20403 11.584319,-11.584319 0,-6.39995 -5.19475,-11.538711 -11.584319,-11.538711 z m -5.92899,25.540233 c -2.17762,0 -3.96787,1.74465 -3.96786,3.92225 0,8.64943 1.12731,13.59082 0,22.16526 -1.19508,9.09624 -4.58141,18.574642 -6.8867397,27.455782 4e-4,1.06476 0.85024,1.91549 1.9155097,1.91551 1.65843,0 3.31282,-2e-5 4.97123,0 0,0.52591 -10e-6,1.07034 0,1.59626 0,2.17813 1.79022,3.92225 3.96786,3.92224 1.52292,0 3.03834,10e-6 4.56075,0 0,-1.84612 0,-3.67238 0,-5.5185 0.9148,0 1.82112,-2e-5 2.73646,0 0,1.84614 -2e-5,3.67239 0,5.5185 1.5219,0 3.083419,10e-6 4.606369,0 2.17812,0 3.92224,-1.74413 3.92225,-3.92224 0,-0.52591 -10e-6,-1.07035 0,-1.59626 1.65842,0 3.35842,-2e-5 5.01682,0 1.06528,0 1.91498,-0.85077 1.91553,-1.91551 -2.30536,-8.88113 -5.73729,-18.359542 -6.93235,-27.455782 -1.12734,-8.57444 -10e-6,-13.51583 0,-22.16526 0,-2.17762 -1.74414,-3.92225 -3.92225,-3.92225 -3.960149,0 -7.943969,0 -11.903579,0 z m -9.0303,1.7787 c -1.0176897,0 -1.8242897,0.81073 -1.8242997,1.8243 l 0,25.49461 c 0,1.02856 0.80659,1.86991 1.8242997,1.86991 l 1.50505,0 c 1.01563,0 1.82431,-0.84135 1.82431,-1.86991 l 0,-25.49461 c 0,-1.01202 -0.80868,-1.82429 -1.82431,-1.8243 l -1.50505,0 z m 28.459119,0 c -1.01511,0 -1.86991,0.81073 -1.86991,1.8243 l 0,25.49461 c 0,1.02856 0.85741,1.86991 1.86991,1.86991 l 1.45945,0 c 1.01666,0 1.8699,-0.84135 1.86991,-1.86991 l 0,-25.49461 c 0,-1.01202 -0.85327,-1.82429 -1.86991,-1.8243 l -1.45945,0 z"/></svg>