<svg xmlns="http://www.w3.org/2000/svg" xmlns:svg="http://www.w3.org/2000/svg" id="svg2" width="400" height="300" space="preserve" version="1.1" viewBox="0 0 79.82 119.743" style="fill-rule:evenodd"><metadata id="metadata3"/><defs id="defs4"><style id="style6" type="text/css">.fil0{fill:#1b1c1f}</style></defs><path id="path14" d="m 15.072837,2.6079449 c 7.523141,0 13.623172,6.09949 13.623172,13.6216001 0,7.52262 -6.100031,13.62264 -13.623172,13.62264 -7.5215845,0 -13.6215915,-6.10002 -13.6215915,-13.62264 0,-7.5221101 6.100007,-13.6216001 13.6215915,-13.6216001 l 0,0 z m -20.7248265,32.2293301 2.063324,0 c 1.408653,0 2.560802,1.15474 2.560802,2.56028 l 0,35.30106 c 0,1.40606 -1.154223,2.5608 -2.560802,2.5608 l -2.063324,0 c -1.406594,0 -2.560298,-1.15111 -2.560298,-2.5608 l 0,-35.30106 c 0,-1.40916 1.152163,-2.56028 2.560298,-2.56028 l 0,0 z m 39.3868785,0 2.0628,0 c 1.40866,0 2.5608,1.15474 2.5608,2.56028 l 0,35.30106 c 0,1.40606 -1.1537,2.5608 -2.5608,2.5608 l -2.0628,0 c -1.4066,0 -2.56082,-1.15111 -2.56082,-2.5608 l 0,-35.30106 c 0,-1.40916 1.15216,-2.56028 2.56082,-2.56028 l 0,0 z m -26.5016635,-2.49203 15.6797575,0 c 2.874694,0 5.226586,2.35189 5.226586,5.22659 0,24.68498 0,49.371518 0,74.056505 0,2.87471 -2.351892,5.2271 -5.226586,5.2271 l -6.027622,0 0,-37.358695 -3.623491,0 0,37.358695 -6.0286445,0 c -2.874709,0 -5.226596,-2.35239 -5.226596,-5.2271 0,-24.684987 0,-49.371525 0,-74.056505 0,-2.8747 2.351887,-5.22659 5.226596,-5.22659 l 0,0 z" class="fil0" style="fill:#1b1c1f"/><path id="path16" d="m 67.597838,30.316755 c -6.37979,0 -11.58434,5.13876 -11.58433,11.53871 0,6.38029 5.20456,11.58431 11.58433,11.58432 6.389591,0 11.538721,-5.20403 11.538701,-11.58432 0,-6.39995 -5.14911,-11.53871 -11.538701,-11.53871 z m -5.70096,25.54023 c -2.0659,0 -3.73979,1.66666 -3.7398,3.73982 0,17.82272 1e-5,35.679608 0,53.497665 0,2.07936 1.6739,3.73983 3.7398,3.73982 l 4.37834,0 0,-26.954057 2.59963,0 0,26.954057 4.378321,0 c 2.07057,0 3.73984,-1.66046 3.73982,-3.73982 0,-17.818057 2e-5,-35.674965 0,-53.497665 0,-2.07315 -1.66923,-3.73982 -3.73982,-3.73982 l -11.356291,0 z m -9.25833,1.7787 c -1.01769,0 -1.86992,0.81073 -1.86991,1.8243 l 0,25.494618 c 0,1.02856 0.8522,1.86991 1.86991,1.86991 l 1.45945,0 c 1.01563,0 1.86991,-0.84135 1.86991,-1.86991 l 0,-25.494618 c 0,-1.01202 -0.85428,-1.82429 -1.86991,-1.8243 l -1.45945,0 z m 28.413521,0 c -1.01511,0 -1.82432,0.81073 -1.82431,1.8243 l 0,25.494618 c 0,1.02856 0.81178,1.86991 1.82431,1.86991 l 1.50505,0 c 1.01666,0 1.82431,-0.84135 1.82429,-1.86991 l 0,-25.494618 c 0,-1.01202 -0.80762,-1.82429 -1.82429,-1.8243 l -1.50505,0 z" style="fill:#1b1c1f"/></svg>