<svg xmlns="http://www.w3.org/2000/svg" xmlns:svg="http://www.w3.org/2000/svg" id="svg1388" width="500" height="500" version="1.0"><metadata id="metadata18"/><path id="path1307" d="m 248.61279,232.47533 42.34157,73.33775 -84.68314,0 42.34157,-73.33775 z" style="fill:#c9c9c9;fill-opacity:1;fill-rule:evenodd;stroke:#000;stroke-width:3.00000501;stroke-linecap:butt;stroke-linejoin:round;stroke-miterlimit:4;stroke-opacity:1;stroke-dasharray:none;stroke-dashoffset:0"/><path id="path1309" d="m 15.336544,224.92174 476.527566,0" style="color:#000;fill:none;stroke:#000;stroke-width:6;stroke-linecap:butt;stroke-linejoin:miter;stroke-miterlimit:4;stroke-opacity:1;stroke-dasharray:none;stroke-dashoffset:0;marker:none;visibility:visible;display:inline;overflow:visible"/><path style="fill:none;stroke:#000;stroke-width:1px;stroke-linecap:butt;stroke-linejoin:miter;stroke-opacity:1" id="path3142-7" d="m 249,224 c 0,-15 0,-15 0,-15 l 0,0 0,0"/><path style="fill:none;stroke:#000;stroke-width:1px;stroke-linecap:butt;stroke-linejoin:miter;stroke-opacity:1" id="path3142-2" d="m 299,224 c 0,-15 0,-15 0,-15 l 0,0 0,0"/><path style="fill:none;stroke:#000;stroke-width:1px;stroke-linecap:butt;stroke-linejoin:miter;stroke-opacity:1" id="path3142-3" d="m 349,224 c 0,-15 0,-15 0,-15 l 0,0 0,0"/><path style="fill:none;stroke:#000;stroke-width:1px;stroke-linecap:butt;stroke-linejoin:miter;stroke-opacity:1" id="path3142" d="m 399,224 c 0,-15 0,-15 0,-15 l 0,0 0,0"/><path style="fill:none;stroke:#000;stroke-width:1px;stroke-linecap:butt;stroke-linejoin:miter;stroke-opacity:1" id="path3142-5" d="m 449,224 c 0,-15 0,-15 0,-15 l 0,0 0,0"/><path style="fill:none;stroke:#000;stroke-width:1px;stroke-linecap:butt;stroke-linejoin:miter;stroke-opacity:1" id="path3142-2-4" d="m 48.674148,224 c 0,-15 0,-15 0,-15 l 0,0 0,0"/><path style="fill:none;stroke:#000;stroke-width:1px;stroke-linecap:butt;stroke-linejoin:miter;stroke-opacity:1" id="path3142-3-7" d="m 99,224 c 0,-15 0,-15 0,-15 l 0,0 0,0"/><path style="fill:none;stroke:#000;stroke-width:1px;stroke-linecap:butt;stroke-linejoin:miter;stroke-opacity:1" id="path3142-31" d="m 149,224 c 0,-15 0,-15 0,-15 l 0,0 0,0"/><path style="fill:none;stroke:#000;stroke-width:1px;stroke-linecap:butt;stroke-linejoin:miter;stroke-opacity:1" id="path3142-5-6" d="m 199,224 c 0,-15 0,-15 0,-15 l 0,0 0,0"/></svg>