<svg xmlns="http://www.w3.org/2000/svg" xmlns:svg="http://www.w3.org/2000/svg" id="svg1306" width="48" height="48" x="0" y="0" enable-background="new 0 0 48 48" version="1.1" viewBox="0 0 48 48" xml:space="preserve"><metadata id="metadata72"/><g id="layer1"><radialGradient id="path2290_1_" cx="-170.946" cy="1294.971" r="21.03" gradientTransform="matrix(1.2711 0 0 0.4502 240.4282 -543.969)" gradientUnits="userSpaceOnUse"><stop style="stop-color:#555753" id="stop6" offset="0"/><stop style="stop-color:#555753;stop-opacity:0" id="stop8" offset="1"/></radialGradient><path id="path2773" fill="#BD9C69" stroke="#6F6F6E" stroke-width="1.05" d="M46.529,39.003c0,1.38-2.239,2.499-5.002,2.499c-2.764,0-5.004-1.118-5.006-2.498c0,0,0,0,0-0.001c0-1.38,2.24-2.499,5.002-2.499 C44.287,36.504,46.527,37.623,46.529,39.003L46.529,39.003z"/><path id="path2775" fill="none" d="M45.527,39.004c0,0.826-1.793,1.496-4.004,1.496s-4.004-0.67-4.004-1.496l0,0c-0.002-0.828,1.791-1.498,4.002-1.498 s4.004,0.67,4.006,1.496C45.527,39.003,45.527,39.003,45.527,39.004z"/><path id="path2777" fill="#BD9C69" stroke="#6F6F6E" stroke-width="1.05" d="M46.539,37.01c0,1.379-2.24,2.498-5.003,2.498c-2.763,0.001-5.004-1.117-5.005-2.496c0-0.002,0-0.002,0-0.002 c0-1.38,2.24-2.498,5.003-2.498c2.763-0.002,5.004,1.117,5.005,2.496C46.539,37.009,46.539,37.01,46.539,37.01z"/><path id="path2779" fill="none" d="M45.537,37.01c0,0.826-1.792,1.496-4.004,1.497c-2.211,0-4.004-0.67-4.004-1.497l0,0c-0.002-0.826,1.791-1.496,4.003-1.496 C43.743,35.512,45.536,36.182,45.537,37.01L45.537,37.01z"/><path id="path2781" fill="#BD9C69" stroke="#6F6F6E" stroke-width="1.05" d="M46.539,35.01c0,1.379-2.24,2.498-5.003,2.498c-2.763,0.001-5.004-1.117-5.005-2.496c0-0.002,0-0.002,0-0.002 c0-1.38,2.24-2.498,5.003-2.498S46.538,33.629,46.539,35.01L46.539,35.01z"/><path id="path2783" fill="none" d="M45.537,35.01c0,0.826-1.792,1.496-4.004,1.497c-2.211,0-4.004-0.67-4.004-1.497l0,0c-0.002-0.826,1.791-1.496,4.003-1.496 C43.743,33.512,45.536,34.182,45.537,35.01L45.537,35.01z"/><path id="path2785" fill="#BD9C69" stroke="#6F6F6E" stroke-width="1.05" d="M46.525,33.004c0,1.381-2.238,2.5-5.002,2.5c-2.765,0-5.004-1.119-5.004-2.498c0,0,0-0.001,0-0.002 c-0.002-1.379,2.237-2.498,5.002-2.498C44.285,30.506,46.525,31.624,46.525,33.004L46.525,33.004z"/><path id="path2787" fill="none" d="M45.537,33.004c0,0.826-1.792,1.496-4.004,1.496c-2.211,0-4.004-0.67-4.004-1.496l0,0c-0.002-0.828,1.791-1.498,4.003-1.498 c2.211,0,4.004,0.67,4.005,1.496C45.537,33.003,45.537,33.003,45.537,33.004z"/><path id="path2321" fill="#8BB640" stroke="#6F6F6E" d="M1.5,34.488h24v6.025h-24V34.488z"/><path id="path2323" fill="#8BB640" stroke="#6F6F6E" d="M4.326,28.5h20.271l0.902,6.01h-24L4.326,28.5z"/><rect id="rect2325" width="23" height="1" x="2" y="38.037" fill="#6F6F6E"/><rect id="rect2327" width="23" height="1" x="2" y="36.037" fill="#6F6F6E"/><path id="path2329" fill="none" stroke="#FFF" d="M4.938,29.553L2.969,33.49h21.344l-0.594-3.938H4.938L4.938,29.553z" enable-background="new" opacity=".25"/><rect id="rect2341" width="4.938" height="6.109" x="11.531" y="34.475" fill="#EDEDED" stroke="#555753"/><path id="path2746" fill="#6F6F6E" d="M19,31.5c0,0.828-2.238,1.5-5,1.5c-2.761,0-5-0.672-5-1.5l0,0c0-0.828,2.238-1.5,5-1.5C16.761,30,19,30.672,19,31.5L19,31.5z"/><path id="path2715" fill="#D4D4D4" stroke="#555753" d="M12.5,28.496l-1,5.637v6.371h5v-6.425 l-1.094-5.583H12.5z"/><path id="rect2271" fill="#8BB640" stroke="#6F6F6E" d="M5.492,39.471H29.5v6.039H5.492V39.471z"/><path id="path3816" fill="#8BB640" stroke="#6F6F6E" d="M7.451,33.505H27.66l1.84,5.994h-24 L7.451,33.505z"/><path id="path2413" fill="#BD9C69" stroke="#6F6F6E" stroke-width="1.05" d="M41.52,41.996c0,1.381-2.238,2.499-5.002,2.5c-2.764,0-5.004-1.119-5.004-2.498c0,0,0-0.001,0-0.002 c-0.002-1.379,2.238-2.498,5.002-2.498C39.277,39.498,41.52,40.615,41.52,41.996L41.52,41.996z"/><path id="path2789" fill="#BD9C69" stroke="#6F6F6E" stroke-width="1.05" d="M46.539,31.004c0,1.379-2.24,2.498-5.003,2.498s-5.004-1.117-5.005-2.498l0,0c0-1.381,2.24-2.5,5.003-2.5s5.004,1.119,5.005,2.498 C46.539,31.002,46.539,31.003,46.539,31.004z"/><rect id="rect2441" width="23" height="1" x="6" y="43" fill="#6F6F6E"/><path id="path2415" fill="none" d="M40.518,41.996c0,0.826-1.791,1.498-4.004,1.498c-2.211,0-4.004-0.67-4.004-1.496c0-0.001,0-0.001,0-0.002 c0-0.826,1.791-1.496,4.004-1.496C38.725,40.5,40.518,41.17,40.518,41.996L40.518,41.996z"/><rect id="rect2443" width="23" height="1" x="6" y="41" fill="#6F6F6E"/><path id="path2417" fill="#BD9C69" stroke="#6F6F6E" stroke-width="1.05" d="M41.529,40.003c0,1.38-2.239,2.499-5.002,2.499c-2.764,0-5.004-1.118-5.006-2.498c0,0,0,0,0-0.001c0-1.38,2.24-2.499,5.002-2.499 C39.287,37.504,41.527,38.623,41.529,40.003L41.529,40.003z"/><path id="path2791" fill="none" d="M45.537,31.004c0,0.826-1.792,1.496-4.004,1.496c-2.211,0-4.004-0.67-4.004-1.496l0,0c-0.002-0.828,1.791-1.498,4.003-1.498 c2.211,0,4.004,0.67,4.005,1.496C45.537,31.003,45.537,31.003,45.537,31.004z"/><path id="path2419" fill="none" d="M40.527,40.004c0,0.826-1.793,1.496-4.004,1.496s-4.004-0.67-4.004-1.496l0,0c-0.002-0.828,1.791-1.498,4.002-1.498 s4.004,0.67,4.006,1.496C40.527,40.003,40.527,40.003,40.527,40.004z"/><path id="path2421" fill="#BD9C69" stroke="#6F6F6E" stroke-width="1.05" d="M41.529,38.003c0,1.38-2.239,2.499-5.002,2.499c-2.764,0-5.004-1.118-5.006-2.498c0,0,0,0,0-0.001c0-1.38,2.24-2.499,5.002-2.499 C39.287,35.504,41.527,36.623,41.529,38.003L41.529,38.003z"/><path id="path2797" fill="#BD9C69" stroke="#6F6F6E" stroke-width="1.05" d="M46.539,29.008c0,1.381-2.24,2.499-5.003,2.499c-2.763,0.001-5.004-1.118-5.005-2.497c0-0.001,0-0.002,0-0.002 c0-1.379,2.24-2.498,5.003-2.498S46.538,27.627,46.539,29.008L46.539,29.008z"/><path id="path2269" fill="none" stroke="#FFF" d="M8.219,34.531l-1.281,3.938 h21.156l-1.219-3.938H8.219z" enable-background="new" opacity=".25"/><path id="path2423" fill="none" d="M40.527,38.004c0,0.826-1.793,1.496-4.004,1.496s-4.004-0.67-4.004-1.496l0,0c-0.002-0.828,1.791-1.498,4.002-1.498 s4.004,0.67,4.006,1.496C40.527,38.003,40.527,38.003,40.527,38.004z"/><path id="path2425" fill="#BD9C69" stroke="#6F6F6E" stroke-width="1.05" d="M41.516,35.998c0.002,1.38-2.238,2.498-5.002,2.499C33.751,38.498,31.51,37.379,31.51,36c0-0.001,0-0.002,0-0.002 c-0.001-1.379,2.238-2.498,5.002-2.498C39.275,33.499,41.516,34.617,41.516,35.998L41.516,35.998z"/><path id="path2427" fill="none" d="M40.527,35.996c0,0.826-1.793,1.498-4.004,1.498s-4.004-0.67-4.004-1.496c0-0.001,0-0.001,0-0.002 c-0.002-0.826,1.791-1.496,4.002-1.496S40.525,35.17,40.527,35.996L40.527,35.996z"/><path id="path2799" fill="#BD9C69" stroke="#6F6F6E" stroke-width="1.05" d="M46.525,27.004c0,1.379-2.238,2.498-5.002,2.498c-2.765,0-5.004-1.117-5.004-2.498l0,0c-0.002-1.381,2.237-2.5,5.002-2.5 c2.764,0,5.004,1.119,5.004,2.498C46.525,27.002,46.525,27.003,46.525,27.004z"/><path id="path2429" fill="#BD9C69" stroke="#6F6F6E" stroke-width="1.05" d="M41.529,33.996c0,1.381-2.239,2.499-5.002,2.5c-2.764,0-5.004-1.119-5.006-2.498c0,0,0-0.001,0-0.002 c0-1.379,2.24-2.498,5.002-2.498C39.287,31.498,41.527,32.615,41.529,33.996L41.529,33.996z"/><path id="path2431" fill="none" d="M40.527,33.996c0,0.826-1.793,1.498-4.004,1.498s-4.004-0.67-4.004-1.496c0-0.001,0-0.001,0-0.002 c-0.002-0.826,1.791-1.496,4.002-1.496S40.525,33.17,40.527,33.996L40.527,33.996z"/><path id="path3837" fill="#6F6F6E" d="M23,36.5c0,0.828-2.238,1.5-5,1.5c-2.761,0-5-0.672-5-1.5l0,0c0-0.828,2.238-1.5,5-1.5C20.761,35,23,35.672,23,36.5L23,36.5z"/><path id="path3839" fill="#6F6F6E" d="M11,37.484c0,0.275-0.679,0.5-1.516,0.5s-1.516-0.225-1.516-0.5l0,0c0-0.275,0.679-0.5,1.516-0.5S11,37.209,11,37.484L11,37.484z"/><path id="path3841" fill="#6F6F6E" d="M27,37.5c0,0.275-0.672,0.5-1.5,0.5S24,37.775,24,37.5l0,0c0-0.275,0.672-0.5,1.5-0.5S27,37.225,27,37.5L27,37.5z"/><path id="rect1372" fill="#D4D4D4" stroke="#555753" d="M16.5,33.521l-1,5.625v6.356h5v-6.411 l-1.094-5.57H16.5z"/><rect id="rect2721" width="4" height="5" x="16" y="40" fill="#888A85"/><linearGradient id="rect2673_1_" x1="-12.05" x2="-12.05" y1="716.651" y2="723.431" gradientTransform="matrix(1 0 0 0.8333 30.0498 -557.1859)" gradientUnits="userSpaceOnUse"><stop style="stop-color:#ededed" id="stop53" offset="0"/><stop style="stop-color:#ededed;stop-opacity:0" id="stop55" offset="1"/></linearGradient><rect id="rect2673" width="4" height="5" x="16" y="40" fill="url(#rect2673_1_)"/><path id="path2691" fill="#6F6F6E" d="M26,35.5c0,0.275-0.672,0.5-1.5,0.5c-0.829,0-1.5-0.225-1.5-0.5l0,0c0-0.275,0.671-0.5,1.5-0.5C25.328,35,26,35.225,26,35.5 L26,35.5z"/><path id="path2693" fill="#6F6F6E" d="M12,35.5c0,0.275-0.671,0.5-1.5,0.5S9,35.775,9,35.5l0,0c0-0.275,0.671-0.5,1.5-0.5S12,35.225,12,35.5L12,35.5z"/><path id="path2748" fill="#6F6F6E" d="M7,32.5C7,32.775,6.321,33,5.484,33s-1.516-0.225-1.516-0.5l0,0c0-0.275,0.679-0.5,1.516-0.5S7,32.225,7,32.5L7,32.5z"/><path id="path2750" fill="#6F6F6E" d="M24,32.5c0,0.275-0.671,0.5-1.5,0.5S21,32.775,21,32.5l0,0c0-0.275,0.671-0.5,1.5-0.5S24,32.225,24,32.5L24,32.5z"/><path id="path2752" fill="#6F6F6E" d="M23,30.5c0,0.275-0.671,0.5-1.5,0.5S20,30.775,20,30.5l0,0c0-0.275,0.671-0.5,1.5-0.5S23,30.225,23,30.5L23,30.5z"/><path id="path2754" fill="#6F6F6E" d="M8,30.5C8,30.775,7.329,31,6.5,31S5,30.775,5,30.5l0,0C5,30.225,5.671,30,6.5,30S8,30.225,8,30.5L8,30.5z"/><path id="path2801" fill="#BD9C69" stroke="#6F6F6E" stroke-width="1.05" d="M46.539,25.002c0,1.379-2.24,2.498-5.003,2.498c-2.763,0.001-5.004-1.117-5.005-2.498l0,0c0-1.38,2.24-2.499,5.003-2.499 s5.004,1.118,5.005,2.497C46.539,25.001,46.539,25.002,46.539,25.002z"/><path id="path2809" fill="#BD9C69" stroke="#6F6F6E" stroke-width="1.05" d="M46.539,23.001c0,1.38-2.24,2.499-5.003,2.499c-2.763,0.001-5.004-1.118-5.005-2.498c0,0,0,0,0-0.001 c0-1.379,2.24-2.499,5.003-2.499S46.538,21.621,46.539,23.001L46.539,23.001z"/><path id="path2793" fill="#E7B142" stroke="#6F6F6E" stroke-width="1.05" d="M46.52,20.998c0,1.38-2.238,2.499-5.002,2.499s-5.004-1.118-5.004-2.498v-0.001c-0.002-1.379,2.238-2.499,5.002-2.499 C44.277,18.499,46.52,19.618,46.52,20.998L46.52,20.998z"/><path id="path2761" fill="#E7B142" stroke="#6F6F6E" stroke-width="1.05" d="M41.51,31.996c0,1.381-2.238,2.499-5.002,2.5c-2.764,0-5.004-1.119-5.005-2.498c0,0,0-0.001,0-0.002 c-0.001-1.379,2.239-2.498,5.003-2.498S41.509,30.615,41.51,31.996L41.51,31.996z"/><path id="path2763" fill="none" stroke="#FFF" stroke-width="1.516" d="M40.508,31.996c0,0.826-1.792,1.498-4.003,1.498c-2.212,0-4.005-0.67-4.005-1.496c0-0.001,0-0.001,0-0.002 c0-0.826,1.791-1.496,4.003-1.496S40.508,31.17,40.508,31.996L40.508,31.996z" enable-background="new" opacity=".5"/><path id="path2795" fill="none" stroke="#FFF" stroke-width="1.516" d="M45.51,20.997c0,0.827-1.792,1.497-4.003,1.497c-2.212,0-4.005-0.669-4.005-1.496c0,0,0,0,0-0.001c0-0.827,1.791-1.497,4.003-1.497 S45.51,20.169,45.51,20.997L45.51,20.997z" enable-background="new" opacity=".5"/></g></svg>