<svg xmlns="http://www.w3.org/2000/svg" xmlns:svg="http://www.w3.org/2000/svg" id="svg2" width="460" height="460" x="0" y="0" enable-background="new 0 0 800 600" version="1.1" viewBox="0 0 460 460" xml:space="preserve"><metadata id="metadata52"/><g id="Capa_3" transform="translate(-167.17557,-68.41221)"><g id="home03"><path id="path6" stroke-miterlimit="10" d="m 271.919,244 c 0,36 -80.219,36 -80.219,0 0,-36 17.958,-65.491 40.109,-65.491 22.151,0 40.11,29.491 40.11,65.491 z" style="fill:#666;stroke:#fff;stroke-width:2;stroke-miterlimit:10"/><circle id="circle8" cx="231.81" cy="160.818" r="31.646" stroke-miterlimit="10" d="m 263.456,160.81799 c 0,17.47761 -14.1684,31.646 -31.646,31.646 -17.47761,0 -31.646,-14.16839 -31.646,-31.646 0,-17.4776 14.16839,-31.646 31.646,-31.646 17.4776,0 31.646,14.1684 31.646,31.646 z" style="fill:#666;stroke:#fff;stroke-width:2;stroke-miterlimit:10"/></g><g id="home02"><path id="path11" stroke-miterlimit="10" d="m 440.967,186 c 0,36 -80.218,36 -80.218,0 0,-36 17.957,-65.49 40.109,-65.49 22.151,0 40.109,29.49 40.109,65.49 z" style="fill:#666;stroke:#fff;stroke-width:2;stroke-miterlimit:10"/><circle id="circle13" cx="400.858" cy="103.224" r="31.646" stroke-miterlimit="10" d="m 432.504,103.224 c 0,17.4776 -14.1684,31.646 -31.646,31.646 -17.4776,0 -31.646,-14.1684 -31.646,-31.646 0,-17.477604 14.1684,-31.646001 31.646,-31.646001 17.4776,0 31.646,14.168397 31.646,31.646001 z" style="fill:#666;stroke:#fff;stroke-width:2;stroke-miterlimit:10"/></g><g id="home01"><path id="path16" stroke-miterlimit="10" d="m 606.155,248.5 c 0,36 -80.219,36 -80.219,0 0,-36 17.958,-65.49 40.109,-65.49 22.151,0 40.11,29.49 40.11,65.49 z" style="stroke:#fff;stroke-miterlimit:10"/><circle id="circle18" cx="566.046" cy="165.896" r="31.646" stroke-miterlimit="10" d="m 597.69202,165.896 c 0,17.4776 -14.1684,31.646 -31.646,31.646 -17.4776,0 -31.646,-14.1684 -31.646,-31.646 0,-17.47761 14.1684,-31.646 31.646,-31.646 17.4776,0 31.646,14.16839 31.646,31.646 z" style="stroke:#fff;stroke-width:2;stroke-miterlimit:10"/></g><g id="taula"><path id="pota" stroke-miterlimit="10" d="M 533,296 H 259 v 101.428 c 0,0 121,122.515 274,0 V 296 z" style="fill:#666;stroke:#fff;stroke-width:2;stroke-miterlimit:10"/><path id="gruix" stroke-miterlimit="10" d="m 549,333.512 c 0,54.491 -68.066,99.441 -152.5,99.441 -84.434,0 -152.5,-44.95 -152.5,-99.441 0,-7.306 0,-31.481 0,-31.481 l 305,-4.137 c 0,0 0,28.697 0,35.618 z" style="fill:#666;stroke:#fff;stroke-width:2;stroke-miterlimit:10"/><ellipse id="damunt" cx="396" cy="304.03" stroke-miterlimit="10" d="m 548.882,304.03 c 0,62.48881 -68.4476,113.146 -152.882,113.146 -84.4344,0 -152.882,-50.65719 -152.882,-113.146 0,-62.48881 68.4476,-113.146 152.882,-113.146 84.4344,0 152.882,50.65719 152.882,113.146 z" rx="152.882" ry="113.146" style="fill:#666;stroke:#fff;stroke-width:2;stroke-miterlimit:10"/></g><g id="home06"><path id="path25" stroke-miterlimit="10" d="m 620.228,423.5 c 0,36 -80.219,36 -80.219,0 0,-36 17.958,-65.49 40.109,-65.49 22.151,0 40.11,29.49 40.11,65.49 z" style="fill:#666;stroke:#fff;stroke-miterlimit:10"/><circle id="circle27" cx="580.118" cy="340.896" r="31.646" stroke-miterlimit="10" d="m 611.76398,340.896 c 0,17.4776 -14.1684,31.646 -31.646,31.646 -17.4776,0 -31.646,-14.1684 -31.646,-31.646 0,-17.47761 14.1684,-31.646 31.646,-31.646 17.4776,0 31.646,14.16839 31.646,31.646 z" style="fill:#666;stroke:#fff;stroke-width:2;stroke-miterlimit:10"/></g><g id="home05"><path id="path30" stroke-miterlimit="10" d="m 441.039,501 c 0,36 -80.218,36 -80.218,0 0,-36 17.957,-65.49 40.109,-65.49 22.151,0 40.109,29.49 40.109,65.49 z" style="fill:#666;stroke:#fff;stroke-width:2;stroke-miterlimit:10"/><circle id="circle32" cx="400.93" cy="418.224" r="31.646" stroke-miterlimit="10" d="m 432.57599,418.224 c 0,17.4776 -14.16839,31.646 -31.646,31.646 -17.4776,0 -31.646,-14.1684 -31.646,-31.646 0,-17.4776 14.1684,-31.646 31.646,-31.646 17.47761,0 31.646,14.1684 31.646,31.646 z" style="fill:#666;stroke:#fff;stroke-width:2;stroke-miterlimit:10"/></g><g id="home04"><path id="path35" stroke-miterlimit="10" d="m 259.991,427 c 0,36 -80.219,36 -80.219,0 0,-36 17.958,-65.49 40.109,-65.49 22.151,0 40.11,29.49 40.11,65.49 z" style="stroke:#fff;stroke-width:2;stroke-miterlimit:10"/><circle id="circle37" cx="219.882" cy="343.817" r="31.646" stroke-miterlimit="10" d="m 251.528,343.81699 c 0,17.4776 -14.16839,31.646 -31.646,31.646 -17.4776,0 -31.646,-14.1684 -31.646,-31.646 0,-17.47761 14.1684,-31.646 31.646,-31.646 17.47761,0 31.646,14.16839 31.646,31.646 z" style="stroke:#fff;stroke-width:2;stroke-miterlimit:10"/></g></g><g id="Capa_4" display="none" transform="translate(0,-140)" style="display:none"><ellipse id="ellipse40" cx="518.675" cy="318.064" stroke-miterlimit="10" d="m 729.90898,318.064 c 0,87.26596 -94.57268,158.009 -211.23399,158.009 -116.66132,0 -211.234,-70.74304 -211.234,-158.009 0,-87.26597 94.57268,-158.00901 211.234,-158.00901 116.66131,0 211.23399,70.74304 211.23399,158.00901 z" display="inline" rx="211.234" ry="158.009" style="fill:none;stroke:#c1272d;stroke-miterlimit:10;display:inline"/><line id="line42" x1="522.991" x2="522.819" y1="88.482" y2="527.139" stroke-miterlimit="10" display="inline" style="fill:none;stroke:#c1272d;stroke-miterlimit:10;display:inline"/><line id="line44" x1="282.295" x2="763.995" y1="447.288" y2="167.371" stroke-miterlimit="10" display="inline" style="fill:none;stroke:#c1272d;stroke-miterlimit:10;display:inline"/><line id="line46" x1="283.953" x2="765.675" y1="168.192" y2="446.314" stroke-miterlimit="10" display="inline" style="fill:none;stroke:#c1272d;stroke-miterlimit:10;display:inline"/></g></svg>