<svg xmlns="http://www.w3.org/2000/svg" xmlns:svg="http://www.w3.org/2000/svg" id="svg1" width="210mm" height="297mm" version="1.1"><metadata id="metadata3"/><path style="fill:#000;fill-opacity:1;fill-rule:evenodd;stroke:#000;stroke-width:3pt;stroke-linecap:butt;stroke-linejoin:miter;stroke-opacity:1" id="path644" d="m 376.12521,592.76672 a 22.394464,22.394464 0 1 1 -44.78893,0 22.394464,22.394464 0 1 1 44.78893,0 z" transform="translate(-50.591654,29.316683)"/><path style="fill:#000;fill-opacity:1;fill-rule:evenodd;stroke:#000;stroke-width:3pt;stroke-linecap:butt;stroke-linejoin:miter;stroke-opacity:1" id="path645" d="m 376.12521,592.76672 a 22.394464,22.394464 0 1 1 -44.78893,0 22.394464,22.394464 0 1 1 44.78893,0 z" transform="translate(4.376571,29.316683)"/><path style="fill:#000;fill-opacity:1;fill-rule:evenodd;stroke:#000;stroke-width:3pt;stroke-linecap:butt;stroke-linejoin:miter;stroke-opacity:1" id="path646" d="m 376.12521,592.76672 a 22.394464,22.394464 0 1 1 -44.78893,0 22.394464,22.394464 0 1 1 44.78893,0 z" transform="translate(59.344751,29.316683)"/><path style="fill:#000;fill-opacity:1;fill-rule:evenodd;stroke:#000;stroke-width:3pt;stroke-linecap:butt;stroke-linejoin:miter;stroke-opacity:1" id="path647" d="m 376.12521,592.76672 a 22.394464,22.394464 0 1 1 -44.78893,0 22.394464,22.394464 0 1 1 44.78893,0 z" transform="matrix(0.625,0,0,0.625,234.49235,260.00208)"/><path style="font-size:12px;fill:#000;fill-opacity:1;fill-rule:evenodd;stroke:#000;stroke-width:2.92460003pt" id="path650" d="m 294.22107,577.21377 -21.61989,-0.0146 0,36.74077 231.57911,0 0,-19.86508 -10.68827,0.0154 0,-47.33376 -13.61481,0 -0.10339,-8.39795 3.861,-4.19897 -0.0199,-3.18104 -13.50351,0 -13.69437,0 -0.0199,2.86294 3.73375,4.07173 0.21472,8.84329 -59.99435,0 -0.0996,-6.61657 c 0.0773,-3.44928 -3.21931,-9.28286 -6.65093,-9.13319 l -6.93629,-0.0282 -6.65094,-0.099 c -3.48175,-0.0121 -7.00849,4.33945 -6.93629,9.00594 l -0.0996,6.87106 -43.91504,0 -0.0173,-15.83531 -46.17359,-0.09 -0.0173,15.92528 11.38955,0 c 2.37609,0.0393 4.4977,2.75072 4.4562,5.0804 l -0.12452,20.72188 c -0.0519,2.44234 -2.01243,4.75743 -4.35468,4.65493 z"/><path style="fill:#000;fill-opacity:1;fill-rule:evenodd;stroke:#000;stroke-width:3pt;stroke-linecap:butt;stroke-linejoin:miter;stroke-opacity:1" id="path648" d="m 376.12521,592.76672 a 22.394464,22.394464 0 1 1 -44.78893,0 22.394464,22.394464 0 1 1 44.78893,0 z" transform="matrix(0.625,0,0,0.625,267.57505,260.00208)"/><path style="fill:#000;fill-opacity:1;fill-rule:evenodd;stroke:#000;stroke-width:3pt;stroke-linecap:butt;stroke-linejoin:miter;stroke-opacity:1" id="path656" d="m 376.12521,592.76672 a 22.394464,22.394464 0 1 1 -44.78893,0 22.394464,22.394464 0 1 1 44.78893,0 z" transform="translate(59.344751,29.316683)"/><path style="fill:#000;fill-opacity:1;fill-rule:evenodd;stroke:#000;stroke-width:3pt;stroke-linecap:butt;stroke-linejoin:miter;stroke-opacity:1" id="path661" d="m 375.22416,433.78543 c -17.69981,0 -32.06249,14.36271 -32.0625,32.0625 0,17.6998 14.36269,32.0625 32.0625,32.0625 4.47496,0 8.72337,-0.93556 12.59375,-2.59375 5.63658,6.24159 13.71538,10.21875 22.78125,10.21875 2.26024,0 4.47201,-0.25614 6.59375,-0.71875 4.3931,4.51522 10.52001,7.34375 17.3125,7.34375 6.67254,0 12.71941,-2.71061 17.09815,-7.08935 2.18937,-2.18937 9.45012,-0.97188 11.48488,4.45757 0.41559,1.18246 -0.10109,20.44929 0.88062,20.61468 0.98172,0.16539 10.85774,1.30755 11.63166,0.46468 0.77391,-0.84287 -1.23163,-15.78659 -2.37195,-22.33186 -2.17071,-12.63948 -12.64062,-28.5781 -16.07478,-32.74242 -3.43415,-4.16431 -12.19768,-10.03918 -17.67983,-11.1858 -4.28307,-11.84848 -15.55077,-20.37499 -28.875,-20.375 -3.67643,0 -7.16789,0.75395 -10.4375,1.9375 -5.87753,-7.34431 -14.80632,-12.125 -24.9375,-12.125 z"/></svg>