<svg xmlns="http://www.w3.org/2000/svg" xmlns:svg="http://www.w3.org/2000/svg" id="svg2" width="500" height="500" version="1.0"><metadata id="metadata2211"/><g id="layer1" transform="translate(-48.8457,-310.11489)"><g id="g8280" transform="matrix(0.6110242,0,0,0.57723577,69.381673,258.93144)"><path id="rect3969" d="m 86.624597,303.97834 590.143573,-0.553 -1.08736,387.57461 -589.056213,0 0,-387.02161 z" style="fill:#231b25;fill-opacity:.83937839;fill-rule:nonzero;stroke:#000;stroke-width:1.17866993;stroke-miterlimit:4;stroke-opacity:1;stroke-dashoffset:0"/><path id="rect4844" d="m 711.39918,269.54889 1.3335,387.4947 0.7855,65.23728 c -0.0904,0 -38.49035,-31.70371 -38.49035,-31.75373 l 0.52661,-386.70729 35.84474,-34.27096 z" style="fill:#dcdcdc;fill-opacity:1;fill-rule:nonzero;stroke:#000;stroke-width:1.17866993;stroke-miterlimit:4;stroke-opacity:1;stroke-dashoffset:0"/><path id="rect4846" d="M 710.75768,269.85037 677.27976,304.05432 88.864767,303.36233 C 67.939268,297.21036 65.449771,281.68241 53.742273,270.84244 l 657.015407,-0.99207 z" style="fill:#dcdcdc;fill-opacity:1;fill-rule:nonzero;stroke:#000;stroke-width:1.17866993;stroke-miterlimit:4;stroke-opacity:1;stroke-dashoffset:0"/><rect id="rect8370" width="141.357" height="50.876" x="317.188" y="714.649" style="fill:#060000;fill-opacity:1;fill-rule:nonzero;stroke:#000;stroke-width:1.17866993;stroke-miterlimit:4;stroke-opacity:1;stroke-dasharray:none;stroke-dashoffset:0"/><path style="fill:#dcdcdc;fill-opacity:1;fill-rule:nonzero;stroke:#000;stroke-width:1.17866993;stroke-miterlimit:4;stroke-opacity:1;stroke-dashoffset:0" id="path7481" d="m 676.05992,690.17797 37.73836,31.83431 -0.0622,0.10797 -659.569037,-0.69199 32.545523,-30.45373 589.347394,-0.79656 z"/><path style="fill:#dcdcdc;fill-opacity:1;fill-rule:nonzero;stroke:#000;stroke-width:1.17866993;stroke-miterlimit:4;stroke-opacity:1;stroke-dashoffset:0" id="path7483" d="m 87.25562,302.77841 -0.505621,387.38368 -30.728838,31.42319 c -0.09039,0 -2.913325,-0.0403 -2.913325,-0.0903 L 53.634442,271.46082 87.25562,302.7784 z"/><rect style="fill:#060000;fill-opacity:1;fill-rule:nonzero;stroke:#000;stroke-width:1.17866993;stroke-miterlimit:4;stroke-opacity:1;stroke-dasharray:none;stroke-dashoffset:0" id="rect9245" width="288.542" height="50.876" x="245.77" y="758.889"/></g></g></svg>